# xmcd
#
# Track frame offsets:
#	150
#	25233
#	45017
#	65252
#	87153
#	104480
#	130407
#	146406
#	164068
#	181292
#	202908
#	219614
#	232714
#	248228
#	276706
#	305093
#
# Disc length: 4313 seconds
#
# Revision: 0
# Processed by: cddbd v1.4PL0 Copyright (c) Steve Scherf et al.
# Submitted via: EasyCDDAExtractor 4.5.0.2
#
DISCID=e410d710
DTITLE=PHILIPPE MENARD - HUNGRY DOG
DYEAR=1900
DGENRE=Blues
TTITLE0=Charolais Boogie
TTITLE1=Don't Miss Me
TTITLE2=Hungry Dog
TTITLE3=Paint It "blues"
TTITLE4=Hopes Of Glory
TTITLE5=Waiting For A Mission
TTITLE6=I'm Your Saviour
TTITLE7=Manic Dépréssion
TTITLE8=I'm Gonna Rise
TTITLE9=Sama Yama Raod Blues
TTITLE10=Star Spangled Chariot ( Live )
TTITLE11=Pistol Slapper Blues
TTITLE12=Can't Stop Loving
TTITLE13=All Along The Watchtowwer
TTITLE14=Bullfrog Blues
TTITLE15=You Got To Loose
EXTD=
EXTT0=
EXTT1=
EXTT2=
EXTT3=
EXTT4=
EXTT5=
EXTT6=
EXTT7=
EXTT8=
EXTT9=
EXTT10=
EXTT11=
EXTT12=
EXTT13=
EXTT14=
EXTT15=
PLAYORDER=
